<svg width="25" height="24" viewBox="0 0 25 24" fill="none" xmlns="http://www.w3.org/2000/svg">
<path d="M19.6755 11H5.67554M19.6755 11C20.206 11 20.7147 11.2107 21.0898 11.5858C21.4648 11.9609 21.6755 12.4696 21.6755 13V19C21.6755 19.5304 21.4648 20.0391 21.0898 20.4142C20.7147 20.7893 20.206 21 19.6755 21H5.67554C5.1451 21 4.6364 20.7893 4.26132 20.4142C3.88625 20.0391 3.67554 19.5304 3.67554 19V13C3.67554 12.4696 3.88625 11.9609 4.26132 11.5858C4.6364 11.2107 5.1451 11 5.67554 11M19.6755 11V9C19.6755 8.46957 19.4648 7.96086 19.0898 7.58579C18.7147 7.21071 18.206 7 17.6755 7M5.67554 11V9C5.67554 8.46957 5.88625 7.96086 6.26132 7.58579C6.6364 7.21071 7.1451 7 7.67554 7M7.67554 7V5C7.67554 4.46957 7.88625 3.96086 8.26132 3.58579C8.6364 3.21071 9.1451 3 9.67554 3H15.6755C16.206 3 16.7147 3.21071 17.0898 3.58579C17.4648 3.96086 17.6755 4.46957 17.6755 5V7M7.67554 7H17.6755" stroke="black" stroke-width="2" stroke-linecap="round" stroke-linejoin="round"/>
</svg>
