<svg width="25" height="24" viewBox="0 0 25 24" fill="none" xmlns="http://www.w3.org/2000/svg">
<path d="M10.2695 3.94C10.3595 3.398 10.8295 3 11.3795 3H13.9725C14.5225 3 14.9925 3.398 15.0825 3.94L15.2955 5.221C15.3585 5.595 15.6085 5.907 15.9405 6.091C16.0145 6.131 16.0875 6.174 16.1605 6.218C16.4845 6.414 16.8805 6.475 17.2355 6.342L18.4525 5.886C18.7019 5.79221 18.9765 5.78998 19.2274 5.87971C19.4783 5.96945 19.6892 6.14531 19.8225 6.376L21.1185 8.623C21.2516 8.8537 21.2985 9.12413 21.2508 9.38617C21.2032 9.6482 21.0642 9.88485 20.8585 10.054L19.8555 10.881C19.5625 11.121 19.4175 11.494 19.4245 11.873C19.4261 11.958 19.4261 12.043 19.4245 12.128C19.4175 12.506 19.5625 12.878 19.8545 13.118L20.8595 13.946C21.2835 14.296 21.3935 14.9 21.1195 15.376L19.8215 17.623C19.6883 17.8536 19.4777 18.0296 19.227 18.1195C18.9763 18.2094 18.7019 18.2074 18.4525 18.114L17.2355 17.658C16.8805 17.525 16.4855 17.586 16.1595 17.782C16.087 17.8261 16.0137 17.8688 15.9395 17.91C15.6085 18.093 15.3585 18.405 15.2955 18.779L15.0825 20.059C14.9925 20.602 14.5225 21 13.9725 21H11.3785C10.8285 21 10.3585 20.602 10.2685 20.06L10.0555 18.779C9.9935 18.405 9.7435 18.093 9.4115 17.909C9.33735 17.8681 9.264 17.8258 9.1915 17.782C8.8665 17.586 8.4715 17.525 8.1155 17.658L6.8985 18.114C6.64923 18.2075 6.37486 18.2096 6.1242 18.1199C5.87353 18.0302 5.66281 17.8545 5.5295 17.624L4.2325 15.377C4.09944 15.1463 4.05255 14.8759 4.10016 14.6138C4.14776 14.3518 4.28679 14.1152 4.4925 13.946L5.4965 13.119C5.7885 12.879 5.9335 12.506 5.9265 12.127C5.92493 12.042 5.92493 11.957 5.9265 11.872C5.9335 11.494 5.7885 11.122 5.4965 10.882L4.4925 10.054C4.28704 9.88489 4.14817 9.64843 4.10057 9.38662C4.05297 9.12481 4.09971 8.8546 4.2325 8.624L5.5295 6.377C5.66269 6.14614 5.87351 5.97006 6.12441 5.88014C6.37531 5.79021 6.64999 5.79229 6.8995 5.886L8.1155 6.342C8.4715 6.475 8.8665 6.414 9.1915 6.218C9.2635 6.174 9.3375 6.131 9.4115 6.09C9.7435 5.907 9.9935 5.595 10.0555 5.221L10.2695 3.94V3.94Z" stroke="black" stroke-width="1.5" stroke-linecap="round" stroke-linejoin="round"/>
<path d="M15.6755 12C15.6755 12.7956 15.3595 13.5587 14.7969 14.1213C14.2342 14.6839 13.4712 15 12.6755 15C11.8799 15 11.1168 14.6839 10.5542 14.1213C9.99161 13.5587 9.67554 12.7956 9.67554 12C9.67554 11.2044 9.99161 10.4413 10.5542 9.87868C11.1168 9.31607 11.8799 9 12.6755 9C13.4712 9 14.2342 9.31607 14.7969 9.87868C15.3595 10.4413 15.6755 11.2044 15.6755 12V12Z" stroke="black" stroke-width="1.5" stroke-linecap="round" stroke-linejoin="round"/>
</svg>
