<svg width="25" height="24" viewBox="0 0 25 24" fill="none" xmlns="http://www.w3.org/2000/svg">
<path fill-rule="evenodd" clip-rule="evenodd" d="M15.7788 5.5032C16.0002 5.27398 16.265 5.09114 16.5578 4.96536C16.8506 4.83958 17.1656 4.77337 17.4842 4.7706C17.8029 4.76783 18.1189 4.82856 18.4139 4.94923C18.7088 5.0699 18.9768 5.24811 19.2021 5.47345C19.4275 5.6988 19.6057 5.96676 19.7264 6.26171C19.847 6.55666 19.9078 6.87269 19.905 7.19136C19.9022 7.51004 19.836 7.82496 19.7102 8.11777C19.5844 8.41058 19.4016 8.67541 19.1724 8.8968L15.5724 12.4968C15.1223 12.9467 14.512 13.1995 13.8756 13.1995C13.2392 13.1995 12.6289 12.9467 12.1788 12.4968C11.9525 12.2782 11.6493 12.1573 11.3347 12.16C11.0201 12.1627 10.7191 12.2889 10.4966 12.5114C10.2741 12.7339 10.1479 13.0349 10.1452 13.3495C10.1424 13.6642 10.2634 13.9673 10.482 14.1936C11.3821 15.0935 12.6028 15.599 13.8756 15.599C15.1484 15.599 16.3691 15.0935 17.2692 14.1936L20.8692 10.5936C21.7435 9.68831 22.2274 8.47582 22.2164 7.21728C22.2055 5.95873 21.7007 4.75483 20.8107 3.86487C19.9208 2.97491 18.7169 2.4701 17.4583 2.45917C16.1998 2.44823 14.9873 2.93204 14.082 3.8064L12.282 5.6064C12.1674 5.7171 12.076 5.84951 12.0131 5.99592C11.9502 6.14232 11.9171 6.29978 11.9157 6.45912C11.9143 6.61846 11.9447 6.77647 12.005 6.92395C12.0653 7.07142 12.1544 7.2054 12.2671 7.31808C12.3798 7.43075 12.5138 7.51985 12.6612 7.58019C12.8087 7.64052 12.9667 7.67089 13.1261 7.6695C13.2854 7.66812 13.4429 7.63501 13.5893 7.57212C13.7357 7.50923 13.8681 7.41781 13.9788 7.3032L15.7788 5.5032ZM9.77879 11.5032C10.2289 11.0533 10.8392 10.8005 11.4756 10.8005C12.112 10.8005 12.7223 11.0533 13.1724 11.5032C13.2831 11.6178 13.4155 11.7092 13.5619 11.7721C13.7083 11.835 13.8658 11.8681 14.0251 11.8695C14.1844 11.8709 14.3425 11.8405 14.4899 11.7802C14.6374 11.7199 14.7714 11.6307 14.8841 11.5181C14.9967 11.4054 15.0858 11.2714 15.1462 11.1239C15.2065 10.9765 15.2369 10.8185 15.2355 10.6591C15.2341 10.4998 15.201 10.3423 15.1381 10.1959C15.0752 10.0495 14.9838 9.9171 14.8692 9.8064C13.9691 8.90654 12.7484 8.40103 11.4756 8.40103C10.2028 8.40103 8.98212 8.90654 8.08198 9.8064L4.48198 13.4064C4.02354 13.8492 3.65786 14.3788 3.4063 14.9645C3.15474 15.5501 3.02232 16.1799 3.01678 16.8173C3.01124 17.4546 3.13269 18.0867 3.37404 18.6766C3.61539 19.2665 3.9718 19.8024 4.42249 20.2531C4.87317 20.7038 5.4091 21.0602 5.99901 21.3015C6.58891 21.5429 7.22097 21.6643 7.85831 21.6588C8.49565 21.6533 9.12551 21.5209 9.71113 21.2693C10.2967 21.0177 10.8264 20.6521 11.2692 20.1936L13.0692 18.3936C13.1838 18.2829 13.2752 18.1505 13.3381 18.0041C13.401 17.8577 13.4341 17.7002 13.4355 17.5409C13.4369 17.3815 13.4065 17.2235 13.3462 17.0761C13.2858 16.9286 13.1967 16.7946 13.0841 16.6819C12.9714 16.5693 12.8374 16.4802 12.6899 16.4198C12.5425 16.3595 12.3844 16.3291 12.2251 16.3305C12.0658 16.3319 11.9083 16.365 11.7619 16.4279C11.6155 16.4908 11.4831 16.5822 11.3724 16.6968L9.57239 18.4968C9.35099 18.726 9.08617 18.9089 8.79336 19.0346C8.50055 19.1604 8.18562 19.2266 7.86695 19.2294C7.54828 19.2322 7.23225 19.1714 6.9373 19.0508C6.64234 18.9301 6.37438 18.7519 6.14904 18.5266C5.92369 18.3012 5.74549 18.0332 5.62481 17.7383C5.50414 17.4433 5.44341 17.1273 5.44618 16.8086C5.44895 16.49 5.51516 16.175 5.64094 15.8822C5.76672 15.5894 5.94956 15.3246 6.17879 15.1032L9.77879 11.5032Z" fill="black"/>
</svg>
