<svg width="25" height="24" viewBox="0 0 25 24" fill="none" xmlns="http://www.w3.org/2000/svg">
<path fill-rule="evenodd" clip-rule="evenodd" d="M5.47556 3.60001C4.83904 3.60001 4.22859 3.85286 3.77851 4.30295C3.32842 4.75304 3.07556 5.36349 3.07556 6.00001V18C3.07556 18.6365 3.32842 19.247 3.77851 19.6971C4.22859 20.1471 4.83904 20.4 5.47556 20.4H19.8756C20.5121 20.4 21.1225 20.1471 21.5726 19.6971C22.0227 19.247 22.2756 18.6365 22.2756 18V6.00001C22.2756 5.36349 22.0227 4.75304 21.5726 4.30295C21.1225 3.85286 20.5121 3.60001 19.8756 3.60001H5.47556ZM19.8756 18H5.47556L10.2756 8.40001L13.8756 15.6L16.2756 10.8L19.8756 18Z" fill="black"/>
</svg>
