<svg width="55" height="55" viewBox="0 0 55 55" fill="none" xmlns="http://www.w3.org/2000/svg">
<path d="M7.93576 10.2956L15.5698 7.51956V36.3208H7.93576V10.2956Z" fill="#0A0C0F"/>
<path d="M48.8821 22.2672C48.8821 30.0288 42.5901 36.3208 34.8285 36.3208C27.0669 36.3208 20.7749 30.0288 20.7749 22.2672C20.7749 14.5056 27.0669 8.21358 34.8285 8.21358C42.5901 8.21358 48.8821 14.5056 48.8821 22.2672ZM28.4709 22.2672C28.4709 25.7784 31.3173 28.6248 34.8285 28.6248C38.3397 28.6248 41.1861 25.7784 41.1861 22.2672C41.1861 18.756 38.3397 15.9096 34.8285 15.9096C31.3173 15.9096 28.4709 18.756 28.4709 22.2672Z" fill="#0A0C0F"/>
<path d="M30.6645 43.0874C34.655 36.1473 27.0209 35.8003 23.8979 30.9423H45.7591C42.9831 35.4533 34.8285 36.1473 38.9925 43.0874H30.6645Z" fill="#0A0C0F"/>
<path d="M40.0336 46.2104C40.0336 49.0851 37.7032 51.4155 34.8285 51.4155C31.9538 51.4155 29.6235 49.0851 29.6235 46.2104C29.6235 43.3358 31.9538 41.0054 34.8285 41.0054C37.7032 41.0054 40.0336 43.3358 40.0336 46.2104Z" fill="#0A0C0F"/>
</svg>
